<?xml version="1.0" encoding="UTF-8" standalone="no"?>
<!DOCTYPE svg PUBLIC "-//W3C//DTD SVG 1.1//EN"
 "http://www.w3.org/Graphics/SVG/1.1/DTD/svg11.dtd">
<!-- Generated by graphviz version 2.44.1 (20200629.0846)
 -->
<!-- Title: dependencies Pages: 1 -->
<svg width="1854pt" height="284pt"
 viewBox="0.00 0.00 1854.00 284.00" xmlns="http://www.w3.org/2000/svg" xmlns:xlink="http://www.w3.org/1999/xlink">
<g id="graph0" class="graph" transform="scale(1 1) rotate(0) translate(4 280)">
<title>dependencies</title>
<polygon fill="white" stroke="transparent" points="-4,4 -4,-280 1850,-280 1850,4 -4,4"/>
<text text-anchor="start" x="902.01" y="-42.4" font-family="sans-serif" font-weight="bold" font-size="14.00">Legend</text>
<polygon fill="#ffffb3" stroke="transparent" points="689,-10 689,-30 709,-30 709,-10 689,-10"/>
<text text-anchor="start" x="712.63" y="-15.4" font-family="sans-serif" font-size="14.00"> &#160;Declarations</text>
<polygon fill="#8dd3c7" stroke="transparent" points="802,-10 802,-30 822,-30 822,-10 802,-10"/>
<text text-anchor="start" x="825.73" y="-15.4" font-family="sans-serif" font-size="14.00"> &#160;Module</text>
<polygon fill="#80b1d3" stroke="transparent" points="888,-10 888,-30 908,-30 908,-10 888,-10"/>
<text text-anchor="start" x="911.78" y="-15.4" font-family="sans-serif" font-size="14.00"> &#160;Bootstrap</text>
<polygon fill="#fdb462" stroke="transparent" points="985,-10 985,-30 1005,-30 1005,-10 985,-10"/>
<text text-anchor="start" x="1008.67" y="-15.4" font-family="sans-serif" font-size="14.00"> &#160;Providers</text>
<polygon fill="#fb8072" stroke="transparent" points="1081,-10 1081,-30 1101,-30 1101,-10 1081,-10"/>
<text text-anchor="start" x="1104.73" y="-15.4" font-family="sans-serif" font-size="14.00"> &#160;Exports</text>
<g id="clust1" class="cluster">
<title>cluster_AppModule</title>
<polygon fill="none" stroke="black" stroke-dasharray="1,5" points="8,-70 8,-268 1838,-268 1838,-70 8,-70"/>
</g>
<g id="clust2" class="cluster">
<title>cluster_AppModule_declarations</title>
<polygon fill="none" stroke="black" points="396,-78 396,-130 1830,-130 1830,-78 396,-78"/>
</g>
<g id="clust12" class="cluster">
<title>cluster_AppModule_imports</title>
<polygon fill="none" stroke="black" points="244,-78 244,-130 388,-130 388,-78 244,-78"/>
</g>
<g id="clust14" class="cluster">
<title>cluster_AppModule_bootstrap</title>
<polygon fill="none" stroke="black" points="932,-208 932,-260 1056,-260 1056,-208 932,-208"/>
</g>
<g id="clust15" class="cluster">
<title>cluster_AppModule_providers</title>
<polygon fill="none" stroke="black" points="16,-78 16,-130 236,-130 236,-78 16,-78"/>
</g>
<!-- AppComponent -->
<g id="node1" class="node">
<title>AppComponent</title>
<polygon fill="#ffffb3" stroke="black" points="1821.94,-122 1716.06,-122 1716.06,-86 1821.94,-86 1821.94,-122"/>
<text text-anchor="middle" x="1769" y="-99.8" font-family="Times,serif" font-size="14.00">AppComponent</text>
</g>
<!-- AppModule -->
<g id="node10" class="node">
<title>AppModule</title>
<polygon fill="#8dd3c7" stroke="black" points="1035.66,-187 1032.66,-191 1011.66,-191 1008.66,-187 952.34,-187 952.34,-151 1035.66,-151 1035.66,-187"/>
<text text-anchor="middle" x="994" y="-164.8" font-family="Times,serif" font-size="14.00">AppModule</text>
</g>
<!-- AppComponent&#45;&gt;AppModule -->
<g id="edge1" class="edge">
<title>AppComponent&#45;&gt;AppModule</title>
<path fill="none" stroke="black" d="M1769,-122.25C1769,-145.02 1769,-181 1769,-181 1769,-181 1045.67,-181 1045.67,-181"/>
<polygon fill="black" stroke="black" points="1045.67,-177.5 1035.67,-181 1045.67,-184.5 1045.67,-177.5"/>
</g>
<!-- AuthComponent -->
<g id="node2" class="node">
<title>AuthComponent</title>
<polygon fill="#ffffb3" stroke="black" points="1698.83,-122 1589.17,-122 1589.17,-86 1698.83,-86 1698.83,-122"/>
<text text-anchor="middle" x="1644" y="-99.8" font-family="Times,serif" font-size="14.00">AuthComponent</text>
</g>
<!-- AuthComponent&#45;&gt;AppModule -->
<g id="edge2" class="edge">
<title>AuthComponent&#45;&gt;AppModule</title>
<path fill="none" stroke="black" d="M1644,-122.28C1644,-143.32 1644,-175 1644,-175 1644,-175 1046.15,-175 1046.15,-175"/>
<polygon fill="black" stroke="black" points="1046.15,-171.5 1036.15,-175 1046.15,-178.5 1046.15,-171.5"/>
</g>
<!-- HeaderComponent -->
<g id="node3" class="node">
<title>HeaderComponent</title>
<polygon fill="#ffffb3" stroke="black" points="1570.74,-122 1449.26,-122 1449.26,-86 1570.74,-86 1570.74,-122"/>
<text text-anchor="middle" x="1510" y="-99.8" font-family="Times,serif" font-size="14.00">HeaderComponent</text>
</g>
<!-- HeaderComponent&#45;&gt;AppModule -->
<g id="edge3" class="edge">
<title>HeaderComponent&#45;&gt;AppModule</title>
<path fill="none" stroke="black" d="M1510,-122.11C1510,-141.34 1510,-169 1510,-169 1510,-169 1045.79,-169 1045.79,-169"/>
<polygon fill="black" stroke="black" points="1045.79,-165.5 1035.79,-169 1045.79,-172.5 1045.79,-165.5"/>
</g>
<!-- LoadingSpinnerComponent -->
<g id="node4" class="node">
<title>LoadingSpinnerComponent</title>
<polygon fill="#ffffb3" stroke="black" points="1430.54,-122 1259.46,-122 1259.46,-86 1430.54,-86 1430.54,-122"/>
<text text-anchor="middle" x="1345" y="-99.8" font-family="Times,serif" font-size="14.00">LoadingSpinnerComponent</text>
</g>
<!-- LoadingSpinnerComponent&#45;&gt;AppModule -->
<g id="edge4" class="edge">
<title>LoadingSpinnerComponent&#45;&gt;AppModule</title>
<path fill="none" stroke="black" d="M1345,-122.02C1345,-139.37 1345,-163 1345,-163 1345,-163 1045.99,-163 1045.99,-163"/>
<polygon fill="black" stroke="black" points="1045.99,-159.5 1035.99,-163 1045.99,-166.5 1045.99,-159.5"/>
</g>
<!-- ReminderAddComponent -->
<g id="node5" class="node">
<title>ReminderAddComponent</title>
<polygon fill="#ffffb3" stroke="black" points="1241.15,-122 1080.85,-122 1080.85,-86 1241.15,-86 1241.15,-122"/>
<text text-anchor="middle" x="1161" y="-99.8" font-family="Times,serif" font-size="14.00">ReminderAddComponent</text>
</g>
<!-- ReminderAddComponent&#45;&gt;AppModule -->
<g id="edge5" class="edge">
<title>ReminderAddComponent&#45;&gt;AppModule</title>
<path fill="none" stroke="black" d="M1161,-122.24C1161,-137.57 1161,-157 1161,-157 1161,-157 1045.71,-157 1045.71,-157"/>
<polygon fill="black" stroke="black" points="1045.71,-153.5 1035.71,-157 1045.71,-160.5 1045.71,-153.5"/>
</g>
<!-- ReminderComponent -->
<g id="node6" class="node">
<title>ReminderComponent</title>
<polygon fill="#ffffb3" stroke="black" points="1062.04,-122 925.96,-122 925.96,-86 1062.04,-86 1062.04,-122"/>
<text text-anchor="middle" x="994" y="-99.8" font-family="Times,serif" font-size="14.00">ReminderComponent</text>
</g>
<!-- ReminderComponent&#45;&gt;AppModule -->
<g id="edge6" class="edge">
<title>ReminderComponent&#45;&gt;AppModule</title>
<path fill="none" stroke="black" d="M994,-122.11C994,-122.11 994,-140.99 994,-140.99"/>
<polygon fill="black" stroke="black" points="990.5,-140.99 994,-150.99 997.5,-140.99 990.5,-140.99"/>
</g>
<!-- ReminderListComponent -->
<g id="node7" class="node">
<title>ReminderListComponent</title>
<polygon fill="#ffffb3" stroke="black" points="908.32,-122 749.68,-122 749.68,-86 908.32,-86 908.32,-122"/>
<text text-anchor="middle" x="829" y="-99.8" font-family="Times,serif" font-size="14.00">ReminderListComponent</text>
</g>
<!-- ReminderListComponent&#45;&gt;AppModule -->
<g id="edge7" class="edge">
<title>ReminderListComponent&#45;&gt;AppModule</title>
<path fill="none" stroke="black" d="M829,-122.24C829,-137.57 829,-157 829,-157 829,-157 941.94,-157 941.94,-157"/>
<polygon fill="black" stroke="black" points="941.94,-160.5 951.94,-157 941.94,-153.5 941.94,-160.5"/>
</g>
<!-- ReminderListItemComponent -->
<g id="node8" class="node">
<title>ReminderListItemComponent</title>
<polygon fill="#ffffb3" stroke="black" points="731.97,-122 548.03,-122 548.03,-86 731.97,-86 731.97,-122"/>
<text text-anchor="middle" x="640" y="-99.8" font-family="Times,serif" font-size="14.00">ReminderListItemComponent</text>
</g>
<!-- ReminderListItemComponent&#45;&gt;AppModule -->
<g id="edge8" class="edge">
<title>ReminderListItemComponent&#45;&gt;AppModule</title>
<path fill="none" stroke="black" d="M640,-122.02C640,-139.37 640,-163 640,-163 640,-163 942,-163 942,-163"/>
<polygon fill="black" stroke="black" points="942,-166.5 952,-163 942,-159.5 942,-166.5"/>
</g>
<!-- SettingsComponent -->
<g id="node9" class="node">
<title>SettingsComponent</title>
<polygon fill="#ffffb3" stroke="black" points="530.45,-122 403.55,-122 403.55,-86 530.45,-86 530.45,-122"/>
<text text-anchor="middle" x="467" y="-99.8" font-family="Times,serif" font-size="14.00">SettingsComponent</text>
</g>
<!-- SettingsComponent&#45;&gt;AppModule -->
<g id="edge9" class="edge">
<title>SettingsComponent&#45;&gt;AppModule</title>
<path fill="none" stroke="black" d="M467,-122.11C467,-141.34 467,-169 467,-169 467,-169 942.21,-169 942.21,-169"/>
<polygon fill="black" stroke="black" points="942.21,-172.5 952.21,-169 942.21,-165.5 942.21,-172.5"/>
</g>
<!-- AppComponent  -->
<g id="node12" class="node">
<title>AppComponent </title>
<polygon fill="#80b1d3" stroke="black" points="1048.44,-252 939.56,-252 939.56,-216 1048.44,-216 1048.44,-252"/>
<text text-anchor="middle" x="994" y="-229.8" font-family="Times,serif" font-size="14.00">AppComponent </text>
</g>
<!-- AppModule&#45;&gt;AppComponent  -->
<g id="edge11" class="edge">
<title>AppModule&#45;&gt;AppComponent </title>
<path fill="none" stroke="black" stroke-dasharray="1,5" d="M994,-187.11C994,-187.11 994,-205.99 994,-205.99"/>
<polygon fill="black" stroke="black" points="990.5,-205.99 994,-215.99 997.5,-205.99 990.5,-205.99"/>
</g>
<!-- AppRoutingModule -->
<g id="node11" class="node">
<title>AppRoutingModule</title>
<polygon fill="#8dd3c7" stroke="black" points="380.27,-122 377.27,-126 356.27,-126 353.27,-122 251.73,-122 251.73,-86 380.27,-86 380.27,-122"/>
<text text-anchor="middle" x="316" y="-99.8" font-family="Times,serif" font-size="14.00">AppRoutingModule</text>
</g>
<!-- AppRoutingModule&#45;&gt;AppModule -->
<g id="edge10" class="edge">
<title>AppRoutingModule&#45;&gt;AppModule</title>
<path fill="none" stroke="black" d="M316,-122.28C316,-143.32 316,-175 316,-175 316,-175 942.1,-175 942.1,-175"/>
<polygon fill="black" stroke="black" points="942.1,-178.5 952.1,-175 942.1,-171.5 942.1,-178.5"/>
</g>
<!-- AuthInterceptorService -->
<g id="node13" class="node">
<title>AuthInterceptorService</title>
<ellipse fill="#fdb462" stroke="black" cx="126" cy="-104" rx="101.82" ry="18"/>
<text text-anchor="middle" x="126" y="-99.8" font-family="Times,serif" font-size="14.00">AuthInterceptorService</text>
</g>
<!-- AuthInterceptorService&#45;&gt;AppModule -->
<g id="edge12" class="edge">
<title>AuthInterceptorService&#45;&gt;AppModule</title>
<path fill="none" stroke="black" d="M126,-122.25C126,-145.02 126,-181 126,-181 126,-181 942.13,-181 942.13,-181"/>
<polygon fill="black" stroke="black" points="942.13,-184.5 952.13,-181 942.13,-177.5 942.13,-184.5"/>
</g>
</g>
</svg>
