<?xml version="1.0" encoding="UTF-8" standalone="no"?>
<!DOCTYPE svg PUBLIC "-//W3C//DTD SVG 1.1//EN"
 "http://www.w3.org/Graphics/SVG/1.1/DTD/svg11.dtd">
<!-- Generated by graphviz version 2.44.1 (20200629.0846)
 -->
<!-- Title: dependencies Pages: 1 -->
<svg width="1854pt" height="284pt"
 viewBox="0.00 0.00 1854.00 284.00" xmlns="http://www.w3.org/2000/svg" xmlns:xlink="http://www.w3.org/1999/xlink">
<g id="graph0" class="graph" transform="scale(1 1) rotate(0) translate(4 280)">
<title>dependencies</title>
<polygon fill="white" stroke="transparent" points="-4,4 -4,-280 1850,-280 1850,4 -4,4"/>
<text text-anchor="start" x="902.01" y="-42.4" font-family="sans-serif" font-weight="bold" font-size="14.00">Legend</text>
<polygon fill="#ffffb3" stroke="transparent" points="689,-10 689,-30 709,-30 709,-10 689,-10"/>
<text text-anchor="start" x="712.63" y="-15.4" font-family="sans-serif" font-size="14.00"> &#160;Declarations</text>
<polygon fill="#8dd3c7" stroke="transparent" points="802,-10 802,-30 822,-30 822,-10 802,-10"/>
<text text-anchor="start" x="825.73" y="-15.4" font-family="sans-serif" font-size="14.00"> &#160;Module</text>
<polygon fill="#80b1d3" stroke="transparent" points="888,-10 888,-30 908,-30 908,-10 888,-10"/>
<text text-anchor="start" x="911.78" y="-15.4" font-family="sans-serif" font-size="14.00"> &#160;Bootstrap</text>
<polygon fill="#fdb462" stroke="transparent" points="985,-10 985,-30 1005,-30 1005,-10 985,-10"/>
<text text-anchor="start" x="1008.67" y="-15.4" font-family="sans-serif" font-size="14.00"> &#160;Providers</text>
<polygon fill="#fb8072" stroke="transparent" points="1081,-10 1081,-30 1101,-30 1101,-10 1081,-10"/>
<text text-anchor="start" x="1104.73" y="-15.4" font-family="sans-serif" font-size="14.00"> &#160;Exports</text>
<g id="clust1" class="cluster">
<title>cluster_AppModule</title>
<polygon fill="none" stroke="black" stroke-dasharray="1,5" points="8,-70 8,-268 1838,-268 1838,-70 8,-70"/>
</g>
<g id="clust15" class="cluster">
<title>cluster_AppModule_providers</title>
<polygon fill="none" stroke="black" points="1610,-78 1610,-130 1830,-130 1830,-78 1610,-78"/>
</g>
<g id="clust12" class="cluster">
<title>cluster_AppModule_imports</title>
<polygon fill="none" stroke="black" points="1458,-78 1458,-130 1602,-130 1602,-78 1458,-78"/>
</g>
<g id="clust14" class="cluster">
<title>cluster_AppModule_bootstrap</title>
<polygon fill="none" stroke="black" points="903,-208 903,-260 1027,-260 1027,-208 903,-208"/>
</g>
<g id="clust2" class="cluster">
<title>cluster_AppModule_declarations</title>
<polygon fill="none" stroke="black" points="16,-78 16,-130 1450,-130 1450,-78 16,-78"/>
</g>
<!-- AppComponent -->
<g id="node1" class="node">
<title>AppComponent</title>
<polygon fill="#ffffb3" stroke="black" points="1441.94,-122 1336.06,-122 1336.06,-86 1441.94,-86 1441.94,-122"/>
<text text-anchor="middle" x="1389" y="-99.8" font-family="Times,serif" font-size="14.00">AppComponent</text>
</g>
<!-- AppModule -->
<g id="node10" class="node">
<title>AppModule</title>
<polygon fill="#8dd3c7" stroke="black" points="1006.66,-187 1003.66,-191 982.66,-191 979.66,-187 923.34,-187 923.34,-151 1006.66,-151 1006.66,-187"/>
<text text-anchor="middle" x="965" y="-164.8" font-family="Times,serif" font-size="14.00">AppModule</text>
</g>
<!-- AppComponent&#45;&gt;AppModule -->
<g id="edge1" class="edge">
<title>AppComponent&#45;&gt;AppModule</title>
<path fill="none" stroke="black" d="M1389,-122.11C1389,-141.34 1389,-169 1389,-169 1389,-169 1016.82,-169 1016.82,-169"/>
<polygon fill="black" stroke="black" points="1016.82,-165.5 1006.82,-169 1016.82,-172.5 1016.82,-165.5"/>
</g>
<!-- AuthComponent -->
<g id="node2" class="node">
<title>AuthComponent</title>
<polygon fill="#ffffb3" stroke="black" points="1318.83,-122 1209.17,-122 1209.17,-86 1318.83,-86 1318.83,-122"/>
<text text-anchor="middle" x="1264" y="-99.8" font-family="Times,serif" font-size="14.00">AuthComponent</text>
</g>
<!-- AuthComponent&#45;&gt;AppModule -->
<g id="edge2" class="edge">
<title>AuthComponent&#45;&gt;AppModule</title>
<path fill="none" stroke="black" d="M1264,-122.02C1264,-139.37 1264,-163 1264,-163 1264,-163 1016.89,-163 1016.89,-163"/>
<polygon fill="black" stroke="black" points="1016.89,-159.5 1006.89,-163 1016.89,-166.5 1016.89,-159.5"/>
</g>
<!-- HeaderComponent -->
<g id="node3" class="node">
<title>HeaderComponent</title>
<polygon fill="#ffffb3" stroke="black" points="1190.74,-122 1069.26,-122 1069.26,-86 1190.74,-86 1190.74,-122"/>
<text text-anchor="middle" x="1130" y="-99.8" font-family="Times,serif" font-size="14.00">HeaderComponent</text>
</g>
<!-- HeaderComponent&#45;&gt;AppModule -->
<g id="edge3" class="edge">
<title>HeaderComponent&#45;&gt;AppModule</title>
<path fill="none" stroke="black" d="M1130,-122.24C1130,-137.57 1130,-157 1130,-157 1130,-157 1017.06,-157 1017.06,-157"/>
<polygon fill="black" stroke="black" points="1017.06,-153.5 1007.06,-157 1017.06,-160.5 1017.06,-153.5"/>
</g>
<!-- LoadingSpinnerComponent -->
<g id="node4" class="node">
<title>LoadingSpinnerComponent</title>
<polygon fill="#ffffb3" stroke="black" points="1050.54,-122 879.46,-122 879.46,-86 1050.54,-86 1050.54,-122"/>
<text text-anchor="middle" x="965" y="-99.8" font-family="Times,serif" font-size="14.00">LoadingSpinnerComponent</text>
</g>
<!-- LoadingSpinnerComponent&#45;&gt;AppModule -->
<g id="edge4" class="edge">
<title>LoadingSpinnerComponent&#45;&gt;AppModule</title>
<path fill="none" stroke="black" d="M965,-122.11C965,-122.11 965,-140.99 965,-140.99"/>
<polygon fill="black" stroke="black" points="961.5,-140.99 965,-150.99 968.5,-140.99 961.5,-140.99"/>
</g>
<!-- ReminderAddComponent -->
<g id="node5" class="node">
<title>ReminderAddComponent</title>
<polygon fill="#ffffb3" stroke="black" points="861.15,-122 700.85,-122 700.85,-86 861.15,-86 861.15,-122"/>
<text text-anchor="middle" x="781" y="-99.8" font-family="Times,serif" font-size="14.00">ReminderAddComponent</text>
</g>
<!-- ReminderAddComponent&#45;&gt;AppModule -->
<g id="edge5" class="edge">
<title>ReminderAddComponent&#45;&gt;AppModule</title>
<path fill="none" stroke="black" d="M781,-122.24C781,-137.57 781,-157 781,-157 781,-157 913.25,-157 913.25,-157"/>
<polygon fill="black" stroke="black" points="913.25,-160.5 923.25,-157 913.25,-153.5 913.25,-160.5"/>
</g>
<!-- ReminderComponent -->
<g id="node6" class="node">
<title>ReminderComponent</title>
<polygon fill="#ffffb3" stroke="black" points="682.04,-122 545.96,-122 545.96,-86 682.04,-86 682.04,-122"/>
<text text-anchor="middle" x="614" y="-99.8" font-family="Times,serif" font-size="14.00">ReminderComponent</text>
</g>
<!-- ReminderComponent&#45;&gt;AppModule -->
<g id="edge6" class="edge">
<title>ReminderComponent&#45;&gt;AppModule</title>
<path fill="none" stroke="black" d="M614,-122.02C614,-139.37 614,-163 614,-163 614,-163 913.01,-163 913.01,-163"/>
<polygon fill="black" stroke="black" points="913.01,-166.5 923.01,-163 913.01,-159.5 913.01,-166.5"/>
</g>
<!-- ReminderListComponent -->
<g id="node7" class="node">
<title>ReminderListComponent</title>
<polygon fill="#ffffb3" stroke="black" points="528.32,-122 369.68,-122 369.68,-86 528.32,-86 528.32,-122"/>
<text text-anchor="middle" x="449" y="-99.8" font-family="Times,serif" font-size="14.00">ReminderListComponent</text>
</g>
<!-- ReminderListComponent&#45;&gt;AppModule -->
<g id="edge7" class="edge">
<title>ReminderListComponent&#45;&gt;AppModule</title>
<path fill="none" stroke="black" d="M449,-122.11C449,-141.34 449,-169 449,-169 449,-169 913.21,-169 913.21,-169"/>
<polygon fill="black" stroke="black" points="913.21,-172.5 923.21,-169 913.21,-165.5 913.21,-172.5"/>
</g>
<!-- ReminderListItemComponent -->
<g id="node8" class="node">
<title>ReminderListItemComponent</title>
<polygon fill="#ffffb3" stroke="black" points="351.97,-122 168.03,-122 168.03,-86 351.97,-86 351.97,-122"/>
<text text-anchor="middle" x="260" y="-99.8" font-family="Times,serif" font-size="14.00">ReminderListItemComponent</text>
</g>
<!-- ReminderListItemComponent&#45;&gt;AppModule -->
<g id="edge8" class="edge">
<title>ReminderListItemComponent&#45;&gt;AppModule</title>
<path fill="none" stroke="black" d="M260,-122.28C260,-143.32 260,-175 260,-175 260,-175 913.27,-175 913.27,-175"/>
<polygon fill="black" stroke="black" points="913.27,-178.5 923.27,-175 913.27,-171.5 913.27,-178.5"/>
</g>
<!-- SettingsComponent -->
<g id="node9" class="node">
<title>SettingsComponent</title>
<polygon fill="#ffffb3" stroke="black" points="150.45,-122 23.55,-122 23.55,-86 150.45,-86 150.45,-122"/>
<text text-anchor="middle" x="87" y="-99.8" font-family="Times,serif" font-size="14.00">SettingsComponent</text>
</g>
<!-- SettingsComponent&#45;&gt;AppModule -->
<g id="edge9" class="edge">
<title>SettingsComponent&#45;&gt;AppModule</title>
<path fill="none" stroke="black" d="M87,-122.25C87,-145.02 87,-181 87,-181 87,-181 913.24,-181 913.24,-181"/>
<polygon fill="black" stroke="black" points="913.24,-184.5 923.24,-181 913.24,-177.5 913.24,-184.5"/>
</g>
<!-- AppComponent  -->
<g id="node12" class="node">
<title>AppComponent </title>
<polygon fill="#80b1d3" stroke="black" points="1019.44,-252 910.56,-252 910.56,-216 1019.44,-216 1019.44,-252"/>
<text text-anchor="middle" x="965" y="-229.8" font-family="Times,serif" font-size="14.00">AppComponent </text>
</g>
<!-- AppModule&#45;&gt;AppComponent  -->
<g id="edge11" class="edge">
<title>AppModule&#45;&gt;AppComponent </title>
<path fill="none" stroke="black" stroke-dasharray="1,5" d="M965,-187.11C965,-187.11 965,-205.99 965,-205.99"/>
<polygon fill="black" stroke="black" points="961.5,-205.99 965,-215.99 968.5,-205.99 961.5,-205.99"/>
</g>
<!-- AppRoutingModule -->
<g id="node11" class="node">
<title>AppRoutingModule</title>
<polygon fill="#8dd3c7" stroke="black" points="1594.27,-122 1591.27,-126 1570.27,-126 1567.27,-122 1465.73,-122 1465.73,-86 1594.27,-86 1594.27,-122"/>
<text text-anchor="middle" x="1530" y="-99.8" font-family="Times,serif" font-size="14.00">AppRoutingModule</text>
</g>
<!-- AppRoutingModule&#45;&gt;AppModule -->
<g id="edge10" class="edge">
<title>AppRoutingModule&#45;&gt;AppModule</title>
<path fill="none" stroke="black" d="M1530,-122.28C1530,-143.32 1530,-175 1530,-175 1530,-175 1017.01,-175 1017.01,-175"/>
<polygon fill="black" stroke="black" points="1017.01,-171.5 1007.01,-175 1017.01,-178.5 1017.01,-171.5"/>
</g>
<!-- AuthInterceptorService -->
<g id="node13" class="node">
<title>AuthInterceptorService</title>
<ellipse fill="#fdb462" stroke="black" cx="1720" cy="-104" rx="101.82" ry="18"/>
<text text-anchor="middle" x="1720" y="-99.8" font-family="Times,serif" font-size="14.00">AuthInterceptorService</text>
</g>
<!-- AuthInterceptorService&#45;&gt;AppModule -->
<g id="edge12" class="edge">
<title>AuthInterceptorService&#45;&gt;AppModule</title>
<path fill="none" stroke="black" d="M1720,-122.25C1720,-145.02 1720,-181 1720,-181 1720,-181 1016.67,-181 1016.67,-181"/>
<polygon fill="black" stroke="black" points="1016.67,-177.5 1006.67,-181 1016.67,-184.5 1016.67,-177.5"/>
</g>
</g>
</svg>
