<?xml version="1.0" encoding="UTF-8" standalone="no"?>
<!DOCTYPE svg PUBLIC "-//W3C//DTD SVG 1.1//EN"
 "http://www.w3.org/Graphics/SVG/1.1/DTD/svg11.dtd">
<!-- Generated by graphviz version 2.44.1 (20200629.0846)
 -->
<!-- Title: dependencies Pages: 1 -->
<svg width="1992pt" height="284pt"
 viewBox="0.00 0.00 1992.00 284.00" xmlns="http://www.w3.org/2000/svg" xmlns:xlink="http://www.w3.org/1999/xlink">
<g id="graph0" class="graph" transform="scale(1 1) rotate(0) translate(4 280)">
<title>dependencies</title>
<polygon fill="white" stroke="transparent" points="-4,4 -4,-280 1988,-280 1988,4 -4,4"/>
<text text-anchor="start" x="971.01" y="-42.4" font-family="sans-serif" font-weight="bold" font-size="14.00">Legend</text>
<polygon fill="#ffffb3" stroke="transparent" points="758,-10 758,-30 778,-30 778,-10 758,-10"/>
<text text-anchor="start" x="781.63" y="-15.4" font-family="sans-serif" font-size="14.00"> &#160;Declarations</text>
<polygon fill="#8dd3c7" stroke="transparent" points="871,-10 871,-30 891,-30 891,-10 871,-10"/>
<text text-anchor="start" x="894.73" y="-15.4" font-family="sans-serif" font-size="14.00"> &#160;Module</text>
<polygon fill="#80b1d3" stroke="transparent" points="957,-10 957,-30 977,-30 977,-10 957,-10"/>
<text text-anchor="start" x="980.78" y="-15.4" font-family="sans-serif" font-size="14.00"> &#160;Bootstrap</text>
<polygon fill="#fdb462" stroke="transparent" points="1054,-10 1054,-30 1074,-30 1074,-10 1054,-10"/>
<text text-anchor="start" x="1077.67" y="-15.4" font-family="sans-serif" font-size="14.00"> &#160;Providers</text>
<polygon fill="#fb8072" stroke="transparent" points="1150,-10 1150,-30 1170,-30 1170,-10 1150,-10"/>
<text text-anchor="start" x="1173.73" y="-15.4" font-family="sans-serif" font-size="14.00"> &#160;Exports</text>
<g id="clust1" class="cluster">
<title>cluster_AppModule</title>
<polygon fill="none" stroke="black" stroke-dasharray="1,5" points="8,-70 8,-268 1976,-268 1976,-70 8,-70"/>
</g>
<g id="clust15" class="cluster">
<title>cluster_AppModule_bootstrap</title>
<polygon fill="none" stroke="black" points="985,-208 985,-260 1109,-260 1109,-208 985,-208"/>
</g>
<g id="clust16" class="cluster">
<title>cluster_AppModule_providers</title>
<polygon fill="none" stroke="black" points="1748,-78 1748,-130 1968,-130 1968,-78 1748,-78"/>
</g>
<g id="clust13" class="cluster">
<title>cluster_AppModule_imports</title>
<polygon fill="none" stroke="black" points="1596,-78 1596,-130 1740,-130 1740,-78 1596,-78"/>
</g>
<g id="clust2" class="cluster">
<title>cluster_AppModule_declarations</title>
<polygon fill="none" stroke="black" points="16,-78 16,-130 1588,-130 1588,-78 16,-78"/>
</g>
<!-- AdminComponent -->
<g id="node1" class="node">
<title>AdminComponent</title>
<polygon fill="#ffffb3" stroke="black" points="1580.22,-122 1459.78,-122 1459.78,-86 1580.22,-86 1580.22,-122"/>
<text text-anchor="middle" x="1520" y="-99.8" font-family="Times,serif" font-size="14.00">AdminComponent</text>
</g>
<!-- AppModule -->
<g id="node11" class="node">
<title>AppModule</title>
<polygon fill="#8dd3c7" stroke="black" points="1088.66,-187 1085.66,-191 1064.66,-191 1061.66,-187 1005.34,-187 1005.34,-151 1088.66,-151 1088.66,-187"/>
<text text-anchor="middle" x="1047" y="-164.8" font-family="Times,serif" font-size="14.00">AppModule</text>
</g>
<!-- AdminComponent&#45;&gt;AppModule -->
<g id="edge1" class="edge">
<title>AdminComponent&#45;&gt;AppModule</title>
<path fill="none" stroke="black" d="M1520,-122.11C1520,-141.34 1520,-169 1520,-169 1520,-169 1098.98,-169 1098.98,-169"/>
<polygon fill="black" stroke="black" points="1098.98,-165.5 1088.98,-169 1098.98,-172.5 1098.98,-165.5"/>
</g>
<!-- AppComponent -->
<g id="node2" class="node">
<title>AppComponent</title>
<polygon fill="#ffffb3" stroke="black" points="1441.94,-122 1336.06,-122 1336.06,-86 1441.94,-86 1441.94,-122"/>
<text text-anchor="middle" x="1389" y="-99.8" font-family="Times,serif" font-size="14.00">AppComponent</text>
</g>
<!-- AppComponent&#45;&gt;AppModule -->
<g id="edge2" class="edge">
<title>AppComponent&#45;&gt;AppModule</title>
<path fill="none" stroke="black" d="M1389,-122.02C1389,-139.37 1389,-163 1389,-163 1389,-163 1098.94,-163 1098.94,-163"/>
<polygon fill="black" stroke="black" points="1098.94,-159.5 1088.94,-163 1098.94,-166.5 1098.94,-159.5"/>
</g>
<!-- AuthComponent -->
<g id="node3" class="node">
<title>AuthComponent</title>
<polygon fill="#ffffb3" stroke="black" points="1318.83,-122 1209.17,-122 1209.17,-86 1318.83,-86 1318.83,-122"/>
<text text-anchor="middle" x="1264" y="-99.8" font-family="Times,serif" font-size="14.00">AuthComponent</text>
</g>
<!-- AuthComponent&#45;&gt;AppModule -->
<g id="edge3" class="edge">
<title>AuthComponent&#45;&gt;AppModule</title>
<path fill="none" stroke="black" d="M1264,-122.24C1264,-137.57 1264,-157 1264,-157 1264,-157 1098.84,-157 1098.84,-157"/>
<polygon fill="black" stroke="black" points="1098.84,-153.5 1088.84,-157 1098.84,-160.5 1098.84,-153.5"/>
</g>
<!-- HeaderComponent -->
<g id="node4" class="node">
<title>HeaderComponent</title>
<polygon fill="#ffffb3" stroke="black" points="1190.74,-122 1069.26,-122 1069.26,-86 1190.74,-86 1190.74,-122"/>
<text text-anchor="middle" x="1130" y="-99.8" font-family="Times,serif" font-size="14.00">HeaderComponent</text>
</g>
<!-- HeaderComponent&#45;&gt;AppModule -->
<g id="edge4" class="edge">
<title>HeaderComponent&#45;&gt;AppModule</title>
<path fill="none" stroke="black" d="M1078.98,-122.11C1078.98,-122.11 1078.98,-140.99 1078.98,-140.99"/>
<polygon fill="black" stroke="black" points="1075.48,-140.99 1078.98,-150.99 1082.48,-140.99 1075.48,-140.99"/>
</g>
<!-- LoadingSpinnerComponent -->
<g id="node5" class="node">
<title>LoadingSpinnerComponent</title>
<polygon fill="#ffffb3" stroke="black" points="1050.54,-122 879.46,-122 879.46,-86 1050.54,-86 1050.54,-122"/>
<text text-anchor="middle" x="965" y="-99.8" font-family="Times,serif" font-size="14.00">LoadingSpinnerComponent</text>
</g>
<!-- LoadingSpinnerComponent&#45;&gt;AppModule -->
<g id="edge5" class="edge">
<title>LoadingSpinnerComponent&#45;&gt;AppModule</title>
<path fill="none" stroke="black" d="M1027.97,-122.11C1027.97,-122.11 1027.97,-140.99 1027.97,-140.99"/>
<polygon fill="black" stroke="black" points="1024.47,-140.99 1027.97,-150.99 1031.47,-140.99 1024.47,-140.99"/>
</g>
<!-- ReminderAddComponent -->
<g id="node6" class="node">
<title>ReminderAddComponent</title>
<polygon fill="#ffffb3" stroke="black" points="861.15,-122 700.85,-122 700.85,-86 861.15,-86 861.15,-122"/>
<text text-anchor="middle" x="781" y="-99.8" font-family="Times,serif" font-size="14.00">ReminderAddComponent</text>
</g>
<!-- ReminderAddComponent&#45;&gt;AppModule -->
<g id="edge6" class="edge">
<title>ReminderAddComponent&#45;&gt;AppModule</title>
<path fill="none" stroke="black" d="M781,-122.24C781,-137.57 781,-157 781,-157 781,-157 995.14,-157 995.14,-157"/>
<polygon fill="black" stroke="black" points="995.14,-160.5 1005.14,-157 995.14,-153.5 995.14,-160.5"/>
</g>
<!-- ReminderComponent -->
<g id="node7" class="node">
<title>ReminderComponent</title>
<polygon fill="#ffffb3" stroke="black" points="682.04,-122 545.96,-122 545.96,-86 682.04,-86 682.04,-122"/>
<text text-anchor="middle" x="614" y="-99.8" font-family="Times,serif" font-size="14.00">ReminderComponent</text>
</g>
<!-- ReminderComponent&#45;&gt;AppModule -->
<g id="edge7" class="edge">
<title>ReminderComponent&#45;&gt;AppModule</title>
<path fill="none" stroke="black" d="M614,-122.02C614,-139.37 614,-163 614,-163 614,-163 995.09,-163 995.09,-163"/>
<polygon fill="black" stroke="black" points="995.09,-166.5 1005.09,-163 995.09,-159.5 995.09,-166.5"/>
</g>
<!-- ReminderListComponent -->
<g id="node8" class="node">
<title>ReminderListComponent</title>
<polygon fill="#ffffb3" stroke="black" points="528.32,-122 369.68,-122 369.68,-86 528.32,-86 528.32,-122"/>
<text text-anchor="middle" x="449" y="-99.8" font-family="Times,serif" font-size="14.00">ReminderListComponent</text>
</g>
<!-- ReminderListComponent&#45;&gt;AppModule -->
<g id="edge8" class="edge">
<title>ReminderListComponent&#45;&gt;AppModule</title>
<path fill="none" stroke="black" d="M449,-122.11C449,-141.34 449,-169 449,-169 449,-169 994.95,-169 994.95,-169"/>
<polygon fill="black" stroke="black" points="994.95,-172.5 1004.95,-169 994.95,-165.5 994.95,-172.5"/>
</g>
<!-- ReminderListItemComponent -->
<g id="node9" class="node">
<title>ReminderListItemComponent</title>
<polygon fill="#ffffb3" stroke="black" points="351.97,-122 168.03,-122 168.03,-86 351.97,-86 351.97,-122"/>
<text text-anchor="middle" x="260" y="-99.8" font-family="Times,serif" font-size="14.00">ReminderListItemComponent</text>
</g>
<!-- ReminderListItemComponent&#45;&gt;AppModule -->
<g id="edge9" class="edge">
<title>ReminderListItemComponent&#45;&gt;AppModule</title>
<path fill="none" stroke="black" d="M260,-122.28C260,-143.32 260,-175 260,-175 260,-175 995.24,-175 995.24,-175"/>
<polygon fill="black" stroke="black" points="995.24,-178.5 1005.24,-175 995.24,-171.5 995.24,-178.5"/>
</g>
<!-- SettingsComponent -->
<g id="node10" class="node">
<title>SettingsComponent</title>
<polygon fill="#ffffb3" stroke="black" points="150.45,-122 23.55,-122 23.55,-86 150.45,-86 150.45,-122"/>
<text text-anchor="middle" x="87" y="-99.8" font-family="Times,serif" font-size="14.00">SettingsComponent</text>
</g>
<!-- SettingsComponent&#45;&gt;AppModule -->
<g id="edge10" class="edge">
<title>SettingsComponent&#45;&gt;AppModule</title>
<path fill="none" stroke="black" d="M87,-122.25C87,-145.02 87,-181 87,-181 87,-181 995.13,-181 995.13,-181"/>
<polygon fill="black" stroke="black" points="995.13,-184.5 1005.13,-181 995.13,-177.5 995.13,-184.5"/>
</g>
<!-- AppComponent  -->
<g id="node13" class="node">
<title>AppComponent </title>
<polygon fill="#80b1d3" stroke="black" points="1101.44,-252 992.56,-252 992.56,-216 1101.44,-216 1101.44,-252"/>
<text text-anchor="middle" x="1047" y="-229.8" font-family="Times,serif" font-size="14.00">AppComponent </text>
</g>
<!-- AppModule&#45;&gt;AppComponent  -->
<g id="edge12" class="edge">
<title>AppModule&#45;&gt;AppComponent </title>
<path fill="none" stroke="black" stroke-dasharray="1,5" d="M1047,-187.11C1047,-187.11 1047,-205.99 1047,-205.99"/>
<polygon fill="black" stroke="black" points="1043.5,-205.99 1047,-215.99 1050.5,-205.99 1043.5,-205.99"/>
</g>
<!-- AppRoutingModule -->
<g id="node12" class="node">
<title>AppRoutingModule</title>
<polygon fill="#8dd3c7" stroke="black" points="1732.27,-122 1729.27,-126 1708.27,-126 1705.27,-122 1603.73,-122 1603.73,-86 1732.27,-86 1732.27,-122"/>
<text text-anchor="middle" x="1668" y="-99.8" font-family="Times,serif" font-size="14.00">AppRoutingModule</text>
</g>
<!-- AppRoutingModule&#45;&gt;AppModule -->
<g id="edge11" class="edge">
<title>AppRoutingModule&#45;&gt;AppModule</title>
<path fill="none" stroke="black" d="M1668,-122.28C1668,-143.32 1668,-175 1668,-175 1668,-175 1098.71,-175 1098.71,-175"/>
<polygon fill="black" stroke="black" points="1098.71,-171.5 1088.71,-175 1098.71,-178.5 1098.71,-171.5"/>
</g>
<!-- AuthInterceptorService -->
<g id="node14" class="node">
<title>AuthInterceptorService</title>
<ellipse fill="#fdb462" stroke="black" cx="1858" cy="-104" rx="101.82" ry="18"/>
<text text-anchor="middle" x="1858" y="-99.8" font-family="Times,serif" font-size="14.00">AuthInterceptorService</text>
</g>
<!-- AuthInterceptorService&#45;&gt;AppModule -->
<g id="edge13" class="edge">
<title>AuthInterceptorService&#45;&gt;AppModule</title>
<path fill="none" stroke="black" d="M1858,-122.25C1858,-145.02 1858,-181 1858,-181 1858,-181 1098.9,-181 1098.9,-181"/>
<polygon fill="black" stroke="black" points="1098.9,-177.5 1088.9,-181 1098.9,-184.5 1098.9,-177.5"/>
</g>
</g>
</svg>
